<svg width="150" height="115" viewBox="0 0 150 115" fill="none" xmlns="http://www.w3.org/2000/svg">
<path d="M27.2727 115V53.1029L8.18182 67.6471L0 56.8235L75 0L102.273 20.6324V6.76471H122.727V36.1912L150 56.8235L141.818 67.6471L122.727 53.1029V115H81.8182V74.4118H68.1818V115H27.2727ZM40.9091 101.471H54.5455V60.8824H95.4545V101.471H109.091V42.7868L75 17.0809L40.9091 42.7868V101.471ZM61.3636 47.5221H88.6364C88.6364 43.9142 87.2727 40.9535 84.5455 38.64C81.8182 36.3265 78.6364 35.172 75 35.1765C71.3636 35.181 68.1818 36.3377 65.4546 38.6468C62.7273 40.9558 61.3636 43.9142 61.3636 47.5221Z" fill="white"/>
</svg>
