<svg width="69" height="115" viewBox="0 0 69 115" fill="none" xmlns="http://www.w3.org/2000/svg">
<path d="M35.3652 0.000930663C33.7984 0.000930663 32.2067 0.107872 30.5901 0.294397C21.9851 1.29169 14.4744 4.66904 9.17705 9.51124C3.85486 14.3559 0.671492 20.842 1.46733 27.7062C2.16369 33.8242 5.8942 38.9474 11.1915 42.479C11.8381 40.937 12.6589 39.5194 13.4796 38.3754C9.10244 35.4905 6.41647 31.5859 5.91907 27.1839C5.34706 22.2845 7.58536 17.3403 12.0868 13.2218C16.6132 9.10088 23.353 5.99461 31.1373 5.09432C38.9216 4.19153 46.2085 5.67379 51.5556 8.65073C56.8778 11.6302 60.1855 15.9401 60.7575 20.8172C61.3047 25.6171 59.2156 30.4667 54.9379 34.4957C52.2929 32.8431 49.2519 31.9325 46.1339 31.8594H45.5868C44.3184 31.8843 43.0749 32.0335 41.7817 32.3071C32.4554 34.4708 26.6607 43.623 28.7995 52.8746C30.1176 58.5947 34.1714 62.9719 39.2947 64.9366L49.1681 107.763L60.857 115L68.1937 103.386L62.3492 99.7795L66.03 93.9599L60.1855 90.3289L63.8414 84.5342L57.9969 80.9032L61.6777 75.0836L58.3202 60.5595C62.0756 56.5554 63.7917 50.8353 62.4735 45.0903C61.8021 42.1805 60.4342 39.6189 58.5441 37.5298C63.2445 32.8045 65.9554 26.7114 65.2093 20.3198C64.4134 13.4681 59.8373 7.87479 53.5452 4.37557C48.4468 1.52795 42.1547 -0.0438354 35.3652 0.000930663ZM30.3414 33.6998C23.9001 33.9734 17.9313 37.878 15.3199 44.195C13.0568 49.6415 13.8277 55.5606 16.8619 60.1616L0 100.7L5.29732 113.383L18.0308 108.186L15.3697 101.844L21.7364 99.2573L19.1002 92.9154L25.4669 90.3289L22.8058 83.9871L29.1726 81.3757L34.8429 67.7469C29.7446 64.8869 25.84 59.9875 24.4224 53.8694C22.7063 46.3338 25.1933 38.7982 30.3414 33.6998ZM44.7661 35.4905C46.9795 35.4656 49.0686 36.3609 50.5857 37.8283C49.2178 38.6987 47.7007 39.4697 46.1091 40.166C45.7111 40.0168 45.2883 39.9671 44.8407 39.9671C44.6915 39.9671 44.5671 39.9671 44.4428 39.992C42.7019 40.1909 41.4086 41.509 41.1848 43.1505C41.135 43.3992 41.135 43.6479 41.135 43.8717C41.1599 43.9463 41.1599 44.0458 41.1599 44.1204C41.4086 46.2095 43.2241 47.6519 45.3132 47.4032C47.0044 47.2043 48.2976 45.9359 48.5463 44.3442C50.0883 43.6479 51.5307 42.8769 52.8986 42.0064C52.9483 42.2551 52.9981 42.5038 53.0229 42.7525C53.5452 47.2291 50.2872 51.3327 45.8106 51.855C41.3589 52.3772 37.2305 49.1193 36.7331 44.6427C36.2108 40.166 39.4688 36.0625 43.9454 35.5402C44.2189 35.5153 44.4925 35.4905 44.7661 35.4905Z" fill="white"/>
</svg>
