<svg width="115" height="115" viewBox="0 0 115 115" fill="none" xmlns="http://www.w3.org/2000/svg">
<path d="M98.5714 68.4524V32.8571L71.1905 13.6905L43.8095 32.8571V41.0714H32.8571V27.381L71.1905 0L109.524 27.381V68.4524H98.5714ZM73.9286 35.5952H79.4048V30.119H73.9286V35.5952ZM62.9762 35.5952H68.4524V30.119H62.9762V35.5952ZM73.9286 46.5476H79.4048V41.0714H73.9286V46.5476ZM62.9762 46.5476H68.4524V41.0714H62.9762V46.5476ZM32.8571 93.0952L70.9167 103.5L103.5 93.369C103.044 92.5476 102.381 91.8394 101.512 91.2443C100.643 90.6492 99.663 90.3535 98.5714 90.3571H70.9167C68.4524 90.3571 66.4901 90.2659 65.0298 90.0833C63.5694 89.9008 62.0635 89.5357 60.5119 88.9881L47.7798 84.744L50.7917 74.0655L61.881 77.7619C63.4325 78.2183 65.2579 78.5833 67.3571 78.8571C69.4564 79.131 72.5595 79.3135 76.6667 79.4048C76.6667 78.4008 76.371 77.4425 75.7795 76.5298C75.1881 75.6171 74.4798 75.0238 73.6548 74.75L41.619 62.9762H32.8571V93.0952ZM0 112.262V52.0238H41.619C42.2579 52.0238 42.8968 52.0932 43.5357 52.2319C44.1746 52.3706 44.7679 52.5294 45.3155 52.7083L77.4881 64.619C80.5 65.7143 82.9424 67.631 84.8152 70.369C86.6881 73.1071 87.6227 76.119 87.619 79.4048H98.5714C103.135 79.4048 107.014 80.9107 110.208 83.9226C113.403 86.9345 115 90.9048 115 95.8333V101.31L71.1905 115L32.8571 104.321V112.262H0ZM10.9524 101.31H21.9048V62.9762H10.9524V101.31Z" fill="white"/>
</svg>
